<svg width="24" height="24" viewBox="0 0 24 24" fill="none" xmlns="http://www.w3.org/2000/svg">
<path d="M12 2C6.48603 2 2 6.48604 2 12C2 17.514 6.48603 22 12 22C17.514 22 22 17.514 22 12C22 6.48604 17.514 2 12 2ZM12 3.5C16.7033 3.5 20.5 7.2967 20.5 12C20.5 16.1904 17.4836 19.6532 13.5 20.3604V14.5H15.3125C15.5645 14.5 15.7776 14.3115 15.8086 14.0615L15.9961 12.5615C16.0141 12.4195 15.969 12.2769 15.874 12.1689C15.7795 12.0614 15.6435 12 15.5 12H13.5V10.25C13.5 9.6985 13.9485 9.25 14.5 9.25H15.5C15.776 9.25 16 9.0265 16 8.75V7.0625C16 6.8035 15.8024 6.58745 15.5449 6.56445C15.5154 6.56195 14.81 6.5 13.917 6.5C11.7135 6.5 10.5 7.80809 10.5 10.1836V12H8.5C8.224 12 8 12.2235 8 12.5V14C8 14.2765 8.224 14.5 8.5 14.5H10.5V20.3604C6.51641 19.6532 3.5 16.1904 3.5 12C3.5 7.2967 7.29669 3.5 12 3.5Z" fill="#8D8E8D"/>
</svg>